
<?xml version="1.0" encoding="utf-8"?>
<!-- Generator: Adobe Illustrator 24.3.0, SVG Export Plug-In . SVG Version: 6.00 Build 0)  -->
<svg version="1.1" id="Layer_1" xmlns="http://www.w3.org/2000/svg" xmlns:xlink="http://www.w3.org/1999/xlink" x="0px" y="0px"
	 viewBox="0 0 841.89 595.28" style="enable-background:new 0 0 841.89 595.28;" xml:space="preserve">
<style type="text/css">
	.st0{fill:url(#SVGID_1_);}
	.st1{fill:url(#SVGID_2_);}
	.st2{fill:url(#SVGID_3_);}
	.st3{fill:url(#SVGID_4_);}
	.st4{fill:url(#SVGID_5_);}
	.st5{fill:url(#SVGID_6_);}
	.st6{fill:url(#SVGID_7_);}
</style>
<rect width="841.89" height="595.28"/>
<g>
	<linearGradient id="SVGID_1_" gradientUnits="userSpaceOnUse" x1="229.1899" y1="415.8747" x2="633.7513" y2="376.1004">
		<stop  offset="0" style="stop-color:#B27F2A"/>
		<stop  offset="0.0576" style="stop-color:#B7862E"/>
		<stop  offset="0.1404" style="stop-color:#C49939"/>
		<stop  offset="0.2379" style="stop-color:#DAB84C"/>
		<stop  offset="0.3333" style="stop-color:#F4DD62"/>
		<stop  offset="0.5161" style="stop-color:#F4E38B"/>
		<stop  offset="0.6613" style="stop-color:#F4DD62"/>
		<stop  offset="1" style="stop-color:#B27F2A"/>
	</linearGradient>
	<path class="st0" d="M174.68,387.09c0-0.21,0.14-0.35,0.42-0.35h0.07l12.8,12.8v6.68c-2.3-2.23-4.52-4.45-6.68-6.68
		c-2.23-2.23-4.45-4.45-6.61-6.61V387.09z M174.68,400.17v-6.19l13.29,13.22v6.26L174.68,400.17z M174.68,407.47v-5.85
		c1.32,1.32,2.58,2.58,3.9,3.9c1.32,1.25,2.64,2.57,3.97,3.9l5.43,5.43v5.85c-2.02-2.02-3.97-3.97-5.99-5.98
		c-2.02-2.02-4.1-4.04-6.12-6.05L174.68,407.47z M174.68,409.28l13.29,13.29c0.07,2.44,0.42,4.59,1.04,6.4l-14.33-14.26V409.28z
		 M174.68,421.95v-5.01l35,35.07c-0.83,0-1.67,0-2.5-0.07c-0.91,0-1.74,0-2.58-0.07L174.68,421.95z M175.73,430.23
		c-0.42-1.67-0.69-3.48-0.83-5.36c4.94,4.94,9.67,9.6,14.19,14.12c4.52,4.52,8.77,8.77,12.6,12.59c-0.91-0.07-1.88-0.21-2.78-0.42
		c-0.91-0.14-1.88-0.35-2.78-0.56L175.73,430.23z M175.73,386.74h7.1l5.15,5.15v7.1L175.73,386.74z M191.52,449.15
		c-6.89-2.58-11.83-7.58-14.47-14.47L191.52,449.15z M187.56,386.74c0.28,0,0.42,0.14,0.42,0.35v4.66
		c-1.67-1.74-3.34-3.41-5.01-5.01H187.56z M197.44,437.46c2.09,0.7,4.45,1.04,6.61,1.18l12.87,12.87c-1.67,0.21-3.34,0.35-5.01,0.42
		L197.44,437.46z M207.39,438.78c0.49,0,0.9,0,1.39,0.07h1.6c0.49,0,1.04,0,1.53-0.07c4.04,4.11,7.86,7.93,11.41,11.41
		c-1.6,0.49-3.2,0.83-4.8,1.04c-0.21-0.21-0.49-0.49-0.7-0.69c-0.28-0.21-0.55-0.49-0.76-0.7c-1.74-1.74-3.48-3.48-5.29-5.36
		c-1.88-1.88-3.76-3.76-5.77-5.78C206.48,438.78,206.9,438.78,207.39,438.78z M218.59,437.81c3.41,3.41,6.82,6.82,10.23,10.23
		c-0.77,0.35-1.46,0.7-2.16,0.97c-0.77,0.35-1.53,0.63-2.3,0.84c-3.69-3.69-7.45-7.45-11.13-11.13
		C215.25,438.58,216.99,438.3,218.59,437.81z M219.36,437.6c1.53-0.35,3.27-1.18,4.52-2.16l9.6,9.6c-1.26,0.97-2.64,1.95-4.04,2.64
		L219.36,437.6z M224.16,435.17c1.32-0.9,2.5-2.16,3.41-3.76l9.67,9.74c-1.11,1.39-2.3,2.57-3.48,3.62L224.16,435.17z
		 M232.57,436.28c-1.6-1.6-3.27-3.27-5.01-4.94c1.88-3.2,2.37-6.68,2.37-10.37v-33.88c0-0.21,0.14-0.35,0.35-0.35h12.45
		c0.21,0,0.35,0.14,0.35,0.42v33.12c0,7.52-1.25,14.61-5.77,20.73C235.71,439.48,234.17,437.88,232.57,436.28z"/>
	<linearGradient id="SVGID_2_" gradientUnits="userSpaceOnUse" x1="230.0947" y1="425.0772" x2="634.6561" y2="385.3029">
		<stop  offset="0" style="stop-color:#B27F2A"/>
		<stop  offset="0.0576" style="stop-color:#B7862E"/>
		<stop  offset="0.1404" style="stop-color:#C49939"/>
		<stop  offset="0.2379" style="stop-color:#DAB84C"/>
		<stop  offset="0.3333" style="stop-color:#F4DD62"/>
		<stop  offset="0.5161" style="stop-color:#F4E38B"/>
		<stop  offset="0.6613" style="stop-color:#F4DD62"/>
		<stop  offset="1" style="stop-color:#B27F2A"/>
	</linearGradient>
	<path class="st1" d="M317.76,452l-64.99-64.99c0.07-0.21,0.21-0.28,0.42-0.28h5.99c5.22,5.22,10.78,10.79,16.84,16.77
		c5.99,5.98,12.11,12.11,18.3,18.37l29.23,29.22v0.42c0,0.35-0.14,0.49-0.49,0.49H317.76z M252.78,394.25v-6.26L316.79,452h-6.26
		l-27.55-27.55c-2.44-2.78-5.08-5.78-7.79-8.91c-2.78-3.13-5.7-6.4-8.77-9.88c-0.07-0.14-0.21-0.21-0.35-0.14
		c-0.21,0.07-0.28,0.21-0.28,0.42v1.25c-2.3-2.23-4.45-4.45-6.61-6.61L252.78,394.25z M252.78,401.49v-5.85
		c2.09,2.09,4.24,4.24,6.4,6.4c2.15,2.16,4.31,4.38,6.61,6.61v5.84L252.78,401.49z M252.78,408.73v-5.36
		c2.16,2.09,4.31,4.18,6.47,6.33l6.54,6.61v5.43L252.78,408.73z M252.78,411.02l13.01,13.01v4.94l-0.49-0.49
		c-2.16-2.09-4.24-4.18-6.26-6.26c-2.09-2.09-4.17-4.18-6.26-6.26V411.02z M252.78,423.27v-4.59l13.01,13.01v4.52L252.78,423.27z
		 M252.78,430.51v-4.11l10.16,10.09c0.91,0.97,1.88,1.95,2.85,2.85v4.1c-1.32-1.25-2.57-2.5-3.82-3.83
		c-1.32-1.32-2.64-2.58-3.97-3.9L252.78,430.51z M252.78,434.05l13.01,13.01v3.69l-13.01-13.01V434.05z M252.78,444.98v-3.27
		l10.44,10.51h-3.2L252.78,444.98z M252.78,449.43l2.78,2.78h-2.37c-0.28,0-0.42-0.14-0.42-0.42V449.43z M259.74,386.74h7.17
		l1.18,1.18c0.42,0.42,0.83,0.83,1.18,1.25l40.29,45.58c0.14,0.14,0.28,0.21,0.49,0.14c0.14-0.07,0.21-0.21,0.21-0.42v-4.31
		l6.75,6.68c2.16,2.23,4.38,4.38,6.54,6.54v7.17L259.74,386.74z M268.23,387.92c-0.21-0.21-0.42-0.42-0.63-0.63
		c-0.21-0.14-0.35-0.35-0.55-0.56c0.07,0,0.14,0.07,0.21,0.14L268.23,387.92z M303.85,447.97c-2.3-2.57-5.64-6.33-10.02-11.27
		c2.64,2.71,5.29,5.29,7.86,7.86c2.58,2.58,5.01,5.01,7.45,7.45h-1.53c-0.07,0-0.21-0.07-0.28-0.14
		C306.35,450.82,305.17,449.5,303.85,447.97z M323.54,443.24l-13.29-13.22v-42.79c0.14-0.35,0.28-0.49,0.49-0.49h12.31
		c0.35,0.07,0.49,0.28,0.49,0.49V443.24z"/>
	<linearGradient id="SVGID_3_" gradientUnits="userSpaceOnUse" x1="230.7441" y1="431.6827" x2="635.3055" y2="391.9084">
		<stop  offset="0" style="stop-color:#B27F2A"/>
		<stop  offset="0.0576" style="stop-color:#B7862E"/>
		<stop  offset="0.1404" style="stop-color:#C49939"/>
		<stop  offset="0.2379" style="stop-color:#DAB84C"/>
		<stop  offset="0.3333" style="stop-color:#F4DD62"/>
		<stop  offset="0.5161" style="stop-color:#F4E38B"/>
		<stop  offset="0.6613" style="stop-color:#F4DD62"/>
		<stop  offset="1" style="stop-color:#B27F2A"/>
	</linearGradient>
	<path class="st2" d="M333.24,387.23c0.07-0.35,0.21-0.49,0.49-0.49h12.1c0.28,0,0.42,0.14,0.42,0.42v21.71l-6.54-6.61
		c-2.16-2.16-4.31-4.24-6.47-6.33V387.23z M333.24,403.16v-7.1c2.16,2.09,4.31,4.17,6.47,6.33l6.54,6.61v7.1L333.24,403.16z
		 M333.24,410.4v-6.68l13.01,12.94v6.68L333.24,410.4z M333.24,417.63v-6.26l13.01,13.01v6.26L333.24,417.63z M333.24,419.02
		l13.01,13.01v5.84c-2.15-2.09-4.24-4.24-6.4-6.4c-2.16-2.16-4.38-4.38-6.61-6.61V419.02z M333.24,432.1v-5.36L358.5,452h-5.36
		L333.24,432.1z M333.24,439.41v-5.01l17.6,17.6h-5.01L333.24,439.41z M333.24,446.65v-4.52c3.27,3.27,6.61,6.61,9.88,9.88h-4.52
		L333.24,446.65z M333.24,449.78l2.23,2.23h-1.74c-0.35,0-0.49-0.14-0.49-0.49V449.78z M360.37,452l-13.08-13.08h5.85L366.22,452
		H360.37z M367.61,452l-13.08-13.08h6.26c2.3,2.37,4.59,4.59,6.75,6.75c2.15,2.16,4.31,4.31,6.33,6.33H367.61z M374.85,452
		l-13.08-13.08h6.68l10.23,10.23v2.37c0,0.35-0.14,0.49-0.49,0.49H374.85z M376.17,438.92c0.42,0.42,0.83,0.83,1.25,1.25
		c0.42,0.49,0.84,0.9,1.26,1.32v7.1c-1.53-1.53-3.06-3.13-4.66-4.73c-1.6-1.6-3.27-3.27-5.01-4.94H376.17z M378.68,441.36
		l-2.37-2.44h1.88c0.35,0.07,0.49,0.28,0.49,0.49V441.36z"/>
	<linearGradient id="SVGID_4_" gradientUnits="userSpaceOnUse" x1="231.0712" y1="435.0103" x2="635.6326" y2="395.236">
		<stop  offset="0" style="stop-color:#B27F2A"/>
		<stop  offset="0.0576" style="stop-color:#B7862E"/>
		<stop  offset="0.1404" style="stop-color:#C49939"/>
		<stop  offset="0.2379" style="stop-color:#DAB84C"/>
		<stop  offset="0.3333" style="stop-color:#F4DD62"/>
		<stop  offset="0.5161" style="stop-color:#F4E38B"/>
		<stop  offset="0.6613" style="stop-color:#F4DD62"/>
		<stop  offset="1" style="stop-color:#B27F2A"/>
	</linearGradient>
	<path class="st3" d="M383.49,387.09c0-0.21,0.14-0.35,0.42-0.35h12.46c0.28,0,0.42,0.14,0.42,0.35v18.79
		c-4.45-4.52-8.91-8.97-13.29-13.29V387.09z M383.49,399.82v-7.1l13.29,13.29v7.1L383.49,399.82z M383.49,407.06v-6.68l13.29,13.29
		v6.68L383.49,407.06z M383.49,414.36v-6.26l6.68,6.61c2.16,2.23,4.38,4.45,6.61,6.61v6.26L383.49,414.36z M383.49,421.6v-5.85
		l13.29,13.29v5.78c-2.16-2.09-4.31-4.24-6.47-6.47L383.49,421.6z M383.49,423.41l13.29,13.29v5.43l-13.29-13.29V423.41z
		 M383.49,436.07v-4.94l13.29,13.22v5.01L383.49,436.07z M383.49,443.31v-4.52l13.15,13.15c-0.14,0.07-0.21,0.07-0.28,0.07h-4.18
		L383.49,443.31z M383.49,450.54v-4.11l5.57,5.57h-4.11c-0.14-0.07-0.28-0.21-0.35-0.35c-0.14-0.14-0.28-0.28-0.35-0.35
		L383.49,450.54z"/>
	<linearGradient id="SVGID_5_" gradientUnits="userSpaceOnUse" x1="231.7156" y1="441.5648" x2="636.277" y2="401.7906">
		<stop  offset="0" style="stop-color:#B27F2A"/>
		<stop  offset="0.0576" style="stop-color:#B7862E"/>
		<stop  offset="0.1404" style="stop-color:#C49939"/>
		<stop  offset="0.2379" style="stop-color:#DAB84C"/>
		<stop  offset="0.3333" style="stop-color:#F4DD62"/>
		<stop  offset="0.5161" style="stop-color:#F4E38B"/>
		<stop  offset="0.6613" style="stop-color:#F4DD62"/>
		<stop  offset="1" style="stop-color:#B27F2A"/>
	</linearGradient>
	<path class="st4" d="M403.68,407.54c0-1.25,0.07-2.44,0.21-3.55l21.92,21.99h-1.04c-0.49,0-0.97,0-1.39-0.07
		c-0.49,0-0.91,0-1.32-0.07L403.68,407.54z M417.38,425.22c-1.74-0.35-3.48-0.97-5.08-1.81c-2.16-2.23-4.38-4.45-6.61-6.61
		c-0.35-0.76-0.69-1.53-0.9-2.3c-0.28-0.76-0.49-1.67-0.7-2.57L417.38,425.22z M429.35,425.98l-24.91-24.91
		c0.28-1.11,0.63-1.95,1.11-3.06c4.52,4.52,9.18,9.18,13.91,13.92c4.73,4.8,9.4,9.46,13.99,14.06H429.35z M406.6,395.99
		c0.56-0.9,1.18-1.74,1.95-2.65l9.33,9.33c-0.56,1.11-0.84,2.37-0.84,3.69L406.6,395.99z M418.36,452l-11.48-11.48v-1.32
		c0.14-0.35,0.28-0.49,0.49-0.49h0.9L421.49,452H418.36z M406.88,448.18v-3.55l7.38,7.38h-3.55L406.88,448.18z M409.87,391.96
		c0.49-0.35,0.91-0.77,1.39-1.11c0.42-0.35,0.9-0.7,1.39-1.04l10.02,10.02c-0.77,0-1.39,0.14-2.02,0.35
		c-0.63,0.28-1.11,0.63-1.6,0.97L409.87,391.96z M412.72,438.72c1.04,0.97,1.88,1.81,2.51,2.5L412.72,438.72z M412.79,438.72h2.72
		L428.8,452h-2.78L412.79,438.72z M424.97,399.82l-10.86-10.85c0.63-0.35,1.32-0.63,1.95-0.9c0.63-0.21,1.32-0.42,1.95-0.63
		l12.38,12.38H424.97z M417.45,443.45c0.07,0.07,0.21,0.14,0.28,0.21c-0.07-0.07-0.07-0.07-0.14-0.07L417.45,443.45z M432.2,399.82
		l-12.73-12.73c0.63-0.07,1.26-0.21,1.88-0.28c0.55-0.07,1.18-0.07,1.81-0.07h1.81l13.08,13.08H432.2z M420.38,438.72h2.85
		L436.52,452h-2.85L420.38,438.72z M423.44,412.76h4.52l13.22,13.22h-4.59L423.44,412.76z M439.44,399.82l-13.08-13.08h6.26
		l13.08,13.08H439.44z M427.61,438.72h3.27L444.17,452h-3.27L427.61,438.72z M430.19,399.89c0.14,0,0.21,0,0.28-0.07L430.19,399.89z
		 M443.83,425.98l-13.15-13.22h5.01c2.5,2.58,4.87,4.87,7.03,7.03c2.16,2.16,4.24,4.24,6.13,6.19H443.83z M433.67,386.74h6.68
		l13.08,13.08h-6.68l-10.92-10.92c0.21,0.21,0.35,0.42,0.49,0.56l-1.11-1.11c0.07,0.07,0.21,0.14,0.28,0.21
		c0.07,0.07,0.21,0.21,0.35,0.35L433.67,386.74z M438.61,438.72l13.22,13.22c-0.35,0.07-0.63,0.07-0.9,0.07h-2.78
		c-1.74-1.81-3.76-3.83-5.98-6.05c-2.3-2.23-4.73-4.66-7.31-7.24H438.61z M436.87,390.01c-0.07,0-0.14-0.07-0.21-0.21L436.87,390.01
		z M437.91,412.76h5.42l26.72,26.79c-0.42,1.32-1.11,2.44-1.81,3.55l-9.81-9.81c0.14-0.76,0.14-1.6,0-2.44
		c-0.91-3.41-3.97-4.59-7.24-4.87h-0.07L437.91,412.76z M448,386.74l13.08,13.08h-7.1c-4.45-4.38-8.84-8.77-13.08-13.08H448z
		 M442.16,438.72h4.1c2.3,2.3,4.38,4.38,6.4,6.4s3.83,3.9,5.57,5.64c-1.04,0.35-2.09,0.63-3.27,0.83L442.16,438.72z M445.22,412.76
		c1.04,0.07,2.02,0.07,3.06,0.07c0.97,0.07,1.95,0.14,2.99,0.21l20.18,20.18c-0.07,0.84-0.14,1.67-0.28,2.51
		c-0.21,0.83-0.42,1.67-0.63,2.44L445.22,412.76z M461.22,399.82l-13.08-13.08h70.42c0.35,0.07,0.56,0.28,0.56,0.49v12.11
		c0,0.35-0.21,0.49-0.56,0.49h-24.84c-0.21,0-0.35,0.14-0.35,0.35v31.8l-13.29-13.29v-18.51c0-0.21-0.14-0.35-0.42-0.35H461.22z
		 M449.39,438.72h2.92c0.49,0,0.97-0.07,1.39-0.21l9.67,9.67c-0.83,0.63-1.81,1.18-2.85,1.67
		C456.84,446.16,453.08,442.4,449.39,438.72z M452.87,413.18c2.86,0.42,5.64,0.97,8.28,2.09l8.84,8.84
		c1.04,2.51,1.53,5.01,1.53,7.72L452.87,413.18z M455.58,437.67c0.97-0.69,1.74-1.6,2.3-2.71l9.46,9.53
		c-0.63,0.83-1.46,1.67-2.44,2.5L455.58,437.67z M469.01,422.08c-1.04-1.04-2.09-2.09-3.06-3.06c-0.97-0.9-1.95-1.88-2.85-2.78
		C465.6,417.7,467.55,419.58,469.01,422.08z M480.08,418.81l13.29,13.22v7.17l-13.29-13.29V418.81z M480.08,433.15v-6.68
		l13.29,13.29v6.68L480.08,433.15z M480.08,434.12c4.45,4.45,8.84,8.84,13.29,13.29v4.1c0,0.35-0.21,0.49-0.56,0.49h-1.18
		c-1.6-1.6-3.41-3.41-5.29-5.36c-1.95-1.95-4.04-4.04-6.26-6.26V434.12z M484.39,452l-4.31-4.31v-5.91L490.24,452H484.39z
		 M482.58,452h-2.02c-0.35,0-0.49-0.14-0.49-0.49v-2.02L482.58,452z"/>
	<linearGradient id="SVGID_6_" gradientUnits="userSpaceOnUse" x1="232.8443" y1="453.0451" x2="637.3369" y2="413.2775">
		<stop  offset="0" style="stop-color:#B27F2A"/>
		<stop  offset="0.0576" style="stop-color:#B7862E"/>
		<stop  offset="0.1404" style="stop-color:#C49939"/>
		<stop  offset="0.2379" style="stop-color:#DAB84C"/>
		<stop  offset="0.3333" style="stop-color:#F4DD62"/>
		<stop  offset="0.5161" style="stop-color:#F4E38B"/>
		<stop  offset="0.6613" style="stop-color:#F4DD62"/>
		<stop  offset="1" style="stop-color:#B27F2A"/>
	</linearGradient>
	<path class="st5" d="M523.95,393.07v-5.01l11.9,11.97h-4.94L523.95,393.07z M523.95,395.78l4.24,4.24h-3.83
		c-0.28,0-0.42-0.14-0.42-0.42V395.78z M523.95,414.78v-1.6c0-0.28,0.14-0.42,0.42-0.42h1.25l9.95,10.02
		c1.11,1.04,2.15,2.09,3.2,3.2h-1.46c-0.21,0-0.35,0.14-0.35,0.35v1.46L523.95,414.78z M523.95,418.81
		c2.58,2.58,5.22,5.22,7.79,7.79l2.64,2.57c0.83,0.9,1.67,1.74,2.57,2.58v3.27l-6.82-6.82c-2.09-2.09-4.11-4.11-6.19-6.19V418.81z
		 M546.7,452l-20.18-20.18c-0.42-0.42-0.83-0.84-1.25-1.25c-0.49-0.42-0.91-0.83-1.32-1.32v-2.78L549.48,452H546.7z M523.95,434.19
		L541.76,452h-2.71l-15.1-15.1V434.19z M531.4,452l-7.45-7.45v-3.13L534.52,452H531.4z M527.22,452h-2.78
		c-0.35,0-0.49-0.14-0.49-0.49v-2.78L527.22,452z M543.57,400.03h-5.43c-4.45-4.45-8.83-8.84-13.29-13.29h5.42L543.57,400.03z
		 M529.17,412.76h4.1l13.22,13.22h-4.11L529.17,412.76z M532.09,386.74h5.85l13.29,13.29h-5.85L532.09,386.74z M541,412.76l2.3,2.3
		c1.81,1.88,3.62,3.69,5.5,5.5c1.81,1.81,3.62,3.62,5.36,5.43h-4.52c-2.85-2.85-5.78-5.78-8.63-8.63l-2.29-2.3
		c-0.77-0.77-1.46-1.53-2.23-2.3H541z M539.4,386.74h6.26c2.23,2.23,4.45,4.45,6.61,6.61c2.16,2.23,4.38,4.45,6.61,6.68h-6.26
		L539.4,386.74z M553.94,452l-13.29-13.29h3.2c4.45,4.45,8.84,8.84,13.29,13.29H553.94z M543.71,412.76h4.94l6.68,6.61
		c2.16,2.23,4.32,4.45,6.47,6.61h-4.94L543.71,412.76z M546.63,386.74h6.68l13.29,13.29h-6.68L546.63,386.74z M551.57,438.72
		L564.86,452h-3.69c-2.02-1.95-4.1-4.04-6.33-6.33c-2.23-2.23-4.52-4.52-6.96-6.96H551.57z M550.95,412.76h5.42l13.15,13.22h-5.42
		c-2.16-2.16-4.32-4.38-6.47-6.61L550.95,412.76z M553.87,386.74h7.1l13.29,13.29h-7.1L553.87,386.74z M555.12,438.72h4.1
		c4.45,4.45,8.84,8.84,13.29,13.29h-4.1L555.12,438.72z M558.18,412.76h5.85l13.08,13.15c-0.14,0.07-0.21,0.07-0.28,0.07h-5.5
		L558.18,412.76z M561.11,386.74h62.2c5.78,0,10.72,0.9,14.96,2.78c12.24,5.43,18.44,16.35,18.44,29.78
		c0,18.16-11.69,31.45-30.41,32.63l-3.76-3.76c-1.46-1.46-2.99-2.99-4.52-4.59c-1.6-1.6-3.2-3.2-4.87-4.87h13.15
		c7.31-0.63,13.43-4.38,16-11.55c0.83-2.3,1.25-4.94,1.18-7.86c-0.28-11.62-6.61-19.27-19.06-19.27h-50.03L561.11,386.74z
		 M575.65,452l-1.11-1.11c-3.62-3.69-7.65-7.79-12.18-12.18h4.59c1.88,1.88,3.76,3.76,5.5,5.5c1.74,1.74,3.41,3.48,5.01,5.08v2.23
		c0,0.35-0.14,0.49-0.49,0.49H575.65z M565.42,412.76h6.26c0.9,0.97,1.88,1.95,2.85,2.85l2.78,2.85v6.26L565.42,412.76z
		 M574.6,438.72l2.86,2.85v5.01c-1.18-1.25-2.44-2.5-3.76-3.83c-1.32-1.32-2.71-2.65-4.04-4.04H574.6z M572.66,412.76h4.17
		c0.35,0,0.49,0.14,0.49,0.42v4.24L572.66,412.76z M576.97,438.72c0.14,0.07,0.28,0.14,0.35,0.21c0.07,0.07,0.14,0.14,0.14,0.28
		v0.14c-0.07-0.07-0.21-0.21-0.28-0.35c-0.07-0.07-0.21-0.21-0.28-0.28H576.97z M587.89,413.46v-0.28c0-0.28,0.14-0.42,0.35-0.42
		h12.24c0.21,0,0.35,0.14,0.35,0.42v13.29c-2.09-2.16-4.18-4.31-6.33-6.47L587.89,413.46z M587.89,420.76v-7.17l6.61,6.54
		c2.15,2.16,4.24,4.31,6.33,6.47v7.1L587.89,420.76z M587.89,421.32l12.94,12.94v4.1c0,0.21,0.14,0.35,0.42,0.35h4.04L618.58,452
		h-6.68l-24.01-24V421.32z M587.89,435.24v-6.26l10.3,10.23c3.27,3.27,6.26,6.4,9.11,9.25c0.63,0.63,1.25,1.18,1.88,1.81
		c0.56,0.63,1.11,1.18,1.74,1.74h-6.26l-0.14-0.14c-0.35-0.35-0.69-0.63-0.97-0.97c-0.35-0.35-0.63-0.63-0.97-0.97L587.89,435.24z
		 M587.89,442.47v-5.85c3.97,3.97,7.93,7.93,11.9,11.9l1.04,1.04c0.35,0.35,0.63,0.7,0.97,1.04l1.39,1.39h-5.85
		c-0.63-0.7-1.32-1.39-2.02-2.09c-0.77-0.7-1.46-1.39-2.23-2.16L587.89,442.47z M587.89,444.35l7.65,7.65h-5.43l-1.11-1.11
		c-0.35-0.35-0.77-0.77-1.11-1.18V444.35z M605.85,438.72h7.17c1.67,1.74,3.27,3.34,4.87,4.94l8.28,8.28
		c-0.49,0.07-0.9,0.07-1.32,0.07h-5.71L605.85,438.72z"/>
</g>
<linearGradient id="SVGID_7_" gradientUnits="userSpaceOnUse" x1="312.8752" y1="225.8544" x2="521.3433" y2="225.8544">
	<stop  offset="0" style="stop-color:#B27F2A"/>
	<stop  offset="0.0576" style="stop-color:#B7862E"/>
	<stop  offset="0.1404" style="stop-color:#C49939"/>
	<stop  offset="0.2379" style="stop-color:#DAB84C"/>
	<stop  offset="0.3333" style="stop-color:#F4DD62"/>
	<stop  offset="0.5161" style="stop-color:#F4E38B"/>
	<stop  offset="0.6613" style="stop-color:#F4DD62"/>
	<stop  offset="1" style="stop-color:#B27F2A"/>
</linearGradient>
<path class="st6" d="M519.1,265.65c4.01-31.45,2.6-62.69-3.81-93.7c-3.97-19.09-9.98-37.49-21.16-53.74
	c-12.82-18.69-29.81-29.11-53.31-25.54c-12.85,1.94-24.1,7.85-34.75,15.02c-21.93,14.75-39.16,34.15-54.58,55.28
	c-14.15,19.36-26.51,39.89-33.55,62.99c-10.05,32.95-5.24,63.93,15.36,91.73c6.41,8.61,14.59,15.96,22.17,24.1
	c-1.7,0.17-3.94,0.27-6.14,0.6c-7.31,1-14.59,2-21.9,3.07c-10.28,2.24-19.29,5.84,4.37,9.71c0.7,0.13,1.44,0.23,2.2,0.33
	c2.2,0.37,4.41,0.67,6.61,0.93c0.07,0,0.13,0,0.2,0.03c1.1,0.1,2.2,0.2,3.3,0.3c46.9,3.94,93.8,3.97,140.71,0
	c3.24-0.27,6.48-0.7,9.68-1.17c0.03,0,0.03-0.03,0.07-0.03c28.77-6.88,9.78-10.55-3.27-12.05c-0.03,0-0.07,0-0.07,0
	c-3.04-0.27-6.08-0.5-9.15-0.87h-0.17c-2.24-0.27-4.47-0.57-6.71-0.97c1.14-1.04,1.77-1.74,2.5-2.27
	C502.17,320.79,515.22,295.76,519.1,265.65z M376.42,267.72v70.2c-0.13-0.03-0.27-0.1-0.37-0.13c-10.05-3.84-17.53-8.28-22.93-12.28
	v-55.25v-3.77c0-3.34,2.74-6.04,6.08-6.04h11.18c3.34,0,6.04,2.7,6.04,6.04V267.72z M410.94,346.1c-8.25-1-15.59-2.44-22.13-4.24
	l-1.2-0.33V218.26c0.51-2.83,2.99-4.99,5.97-4.99h11.18c3.34,0,6.04,2.7,6.04,6.04v1.23l0.14-0.04V346.1z M446.06,342.42
	c-9.31,2.24-17.76,3.3-23.33,3.81V237.1c0.14-3.21,2.8-5.78,6.05-5.78h11.18c3.34,0,6.04,2.7,6.04,6.04l0.06,2.91V342.42z
	 M459.74,338.29V187.74l0.13-5.36c0-3.34,2.74-6.04,6.08-6.04h11.18c3.01,0,5.49,2.21,5.95,5.09V325.6
	C476.13,331.17,467.96,335.28,459.74,338.29z"/>
</svg>
